<?xml version="1.0" encoding="utf-8"?>
<svg version="1.1" xmlns="http://www.w3.org/2000/svg" xmlns:xlink="http://www.w3.org/1999/xlink" x="0px" y="0px" width="120px" height="120px"
	 viewBox="0 0 85.039 85.039" xml:space="preserve">
<g>
	<path fill="#455864" d="M84.304,42.577c0,22.902-18.56,41.466-41.481,41.466c-22.902,0-41.476-18.564-41.476-41.466 c0-22.921,18.574-41.481,41.476-41.481C65.744,1.097,84.304,19.656,84.304,42.577"/>
	<path fill="#FFFFFF" d="M18.513,50.986c7.252-16.478,13.665-24.727,19.227-24.727c2.44,0,3.65,1.902,3.65,5.693 c0,1.636-0.527,5.296-1.563,10.998l-1.815,9.86c3.529-7.992,7.213-14.416,11.047-19.256c3.814-4.855,7.126-7.295,9.904-7.295 c3.05,0,4.589,1.941,4.589,5.804c0,1.384-0.445,4.56-1.355,9.536l-0.929,5.078c-0.571,3.064-0.847,5.335-0.847,6.816 c0,2.6,0.847,3.892,2.571,3.892c3.853,0,9.342-7.503,9.342-7.503l1.331,1.743c0,0-6.68,11.632-13.22,11.632 c-4.168,0-6.25-2.934-6.25-8.796c0-1.965,0.397-5.098,1.196-9.425l0.847-4.492c0.557-3.045,0.847-4.933,0.847-5.678 c0-0.929-0.426-1.404-1.317-1.404c-2.178,0-6.08,4.666-11.715,13.99c-5.097,8.486-7.396,14.677-8.999,15.674 c-0.281,0.179-0.765,0.165-1.365,0.165c-1.873,0-2.817-0.968-2.817-2.9c0-0.59,0.31-2.357,0.92-5.31 c0.208-1.06,0.441-2.193,0.653-3.408l1.278-6.908c0.92-4.962,1.384-7.953,1.384-8.96c0-1.438-0.499-2.169-1.482-2.169 c-2.169,0-5.378,4.197-9.609,12.591c-4.212,8.326-6.134,17.064-8.893,17.03c-2.086-0.029-3.147-1.21-3.147-3.66 c0-0.295,0.295-3.456,0.92-9.469l0.692-6.946c0.286-8.786,0.363-13.395,0.363-15.452c0-2.614-0.494-4.526-1.486-5.741 c2.338-0.91,3.979-1.37,4.961-1.37c1.767,0,2.658,1.133,2.658,3.389c0,0.808-0.252,12.494-0.731,17.664L18.513,50.986 L18.513,50.986z"/>
</g>
</svg>
